<?xml version="1.0" encoding="utf-8"?>
<svg viewBox="0 -129.946 4159.842 2330.062" width="4159.842" height="2330.062" xmlns="http://www.w3.org/2000/svg">
  <defs>
    <style>.cls-1{fill:#41e0fd}</style>
  </defs>
  <path class="cls-1" d="M888 1119.17c16-32.62 32.84-65.37 50.17-97.35l.15-.27 18.39-35.68 27.16-45 .17-.29c10.14-17.26 20.66-34.68 31.27-51.78l18.69-30.87c24.88-41.19 44.88-71.23 76.43-114.76 17-23.43 33.12-44 58.66-75.92l.06-.06 1.26-1.59.49-.63c10.37-13.22 20.84-26.25 31.11-38.73l.34-.42.2-.25c23.83-29.51 48.12-59.13 72.19-88l9.57-11.48V356.54H1267c-9.23-8.68-18.66-17.3-28.08-25.69-76.32-67.72-152.43-120.85-226.27-157.79-75.71-37.92-145.63-57.14-207.8-57.14-44.39 0-84.06 9.94-117.91 29.53-32.55 18.84-59.9 46.91-81.31 83.44-20.06 34.23-34.84 75.89-43.95 123.81-17.54 92.37-13.74 208 11 334.34 3.12 15.9 6.56 32 10.25 48-19.74 6-38.91 12.18-57.13 18.53-119.26 41.58-219 95.91-288.42 157.14-36 31.71-63.84 65.23-82.89 99.62-20.24 36.57-30.51 74.08-30.51 111.49 0 75 41.55 151 120.15 219.94 74 64.93 178.65 121.62 302.55 164 11.51 3.91 23.22 7.71 35 11.34-4.12 17.93-7.93 36-11.36 54-23.56 124.08-26.31 237.62-8 328.35 9.51 47 24.61 87.89 44.89 121.57 21.56 35.8 48.93 63.44 81.34 82.13 34.15 19.69 74.34 29.67 119.45 29.67 61.42 0 130.09-18.21 204.11-54.13 72.56-35.21 146.63-85.64 220.13-149.89 11.33-9.9 23-20.49 34.66-31.53h17.41v-174.39l-6.34-7.8-3-3.67-79.82-98.55-44.35-54.75c-22.39-27.64-58.25-78.79-101-144-34-51.84-58.76-93.47-70.5-113.63l-1.28-2.21c-20.49-35.33-35.71-63.79-47.93-86.64-15.3-28.63-30.39-57.87-44.91-87l2.66-5.17zm-80.86-172.89c-13.53-34.7-25.92-69.13-37-102.81 34.57-7.13 70.51-13.53 107.32-19.11-12.28 20.11-24.34 40.41-36 60.64s-23.12 40.69-34.32 61.28zm-38.25 462.1c11.45-34.86 24.31-70.56 38.39-106.59 11.29 20.7 22.87 41.3 34.58 61.53 12.27 21.19 25 42.48 37.95 63.58-38.46-5.32-75.62-11.53-110.92-18.51zM707.18 397.16c9-61.74 29.14-105.87 55.37-121.06 10.89-6.31 25.34-9.5 42.93-9.5 38.47 0 88.24 15.1 143.91 43.67 60.34 31 125.77 77.11 189.22 133.45q5.9 5.24 12.07 10.89c-55.81 61.71-110.81 130.28-163.68 204.1-90.08 8.8-176.68 21.94-257.76 39.11-2.93-12.84-5.68-25.75-8.2-38.5l-.24-1.32c-19.33-98.76-24.04-189-13.62-260.84zm11.31 727c-38.1 84-70.48 167.16-96.37 247.46-9-2.8-17.89-5.72-26.65-8.7-103-35.21-188.79-80.66-248.08-131.43-45.37-38.85-72.45-79.83-72.45-109.63 0-30.59 27.09-70 74.34-108.2 55-44.47 133.27-85.11 226.19-117.5 15.79-5.48 31.87-10.73 48-15.64 25.53 79.13 57.48 160.99 95.01 243.63zm.12 474.92c2.86-15 6-30.09 9.43-45.09 80 16.37 167.59 28.71 260.75 36.71 53.38 74.34 108.84 143.37 165.05 205.44-6.94 6.39-13.94 12.68-20.9 18.79-81.37 71.13-163.09 122.55-236.28 148.71l-1.52.54c-32.8 11.58-62.09 17.45-87 17.45-18.38 0-33.22-3.18-44.11-9.46-26.51-15.29-47.14-58.46-56.6-118.45-11.06-69.91-7.19-157.97 11.17-254.65z" transform="matrix(1, 0, 0, 1, -123.980003, -115.919998)" id="_Group_" data-name="&lt;Group&gt;"/>
  <text style="fill: rgb(65, 224, 253); font-family: Arial, sans-serif; font-size: 76.3px; stroke-linecap: square; white-space: pre;" transform="matrix(7.348886, 0, 0, 27.322245, -7831.75, -9338.355469)"><tspan x="1199.22" y="406.099">SearchNews</tspan><tspan x="1199.219970703125" dy="1em">​</tspan></text>
</svg>